<svg width="60" height="60" viewBox="0 0 60 60" fill="none" xmlns="http://www.w3.org/2000/svg">
<path d="M5 19.5714C5 18.1571 6.39051 17 7.83623 17H28.2077H48.5791C50.0248 17 51 18.1571 51 19.5714V26H5V19.5714Z" fill="#805026"/>
<path d="M33.0132 4.00003L5.85938 31.1538L21.2468 46.5412L48.4006 19.3874L33.0132 4.00003Z" fill="#238C7C"/>
<path d="M31.8954 7L9 29.2766C9.51663 30.3311 9.51663 31.5628 9 32.6173L19.6711 43C20.7549 42.4973 22.0208 42.4973 23.1046 43L46 20.7234C45.4834 19.6689 45.4834 18.4372 46 17.3827L35.3289 7C34.2451 7.50332 32.9792 7.50332 31.8954 7Z" fill="#A3CCC5"/>
<path d="M18.0725 36.2438C19.1329 36.2438 19.9926 35.3842 19.9926 34.3237C19.9926 33.2632 19.1329 32.4036 18.0725 32.4036C17.012 32.4036 16.1523 33.2632 16.1523 34.3237C16.1523 35.3842 17.012 36.2438 18.0725 36.2438Z" fill="#238C7C"/>
<path d="M36.174 18.142C37.2345 18.142 38.0942 17.2823 38.0942 16.2219C38.0942 15.1614 37.2345 14.3018 36.174 14.3018C35.1136 14.3018 34.2539 15.1614 34.2539 16.2219C34.2539 17.2823 35.1136 18.142 36.174 18.142Z" fill="#238C7C"/>
<path d="M27.125 31.6739C30.6599 31.6739 33.5255 28.8083 33.5255 25.2735C33.5255 21.7386 30.6599 18.873 27.125 18.873C23.5902 18.873 20.7246 21.7386 20.7246 25.2735C20.7246 28.8083 23.5902 31.6739 27.125 31.6739Z" fill="#238C7C"/>
<path d="M5 21C5 22.3276 6.35424 23.4138 7.76224 23.4138H41.0422H50.6422C52.0502 23.4138 53 24.5 53 25.8276V53.5862C53 54.9138 52.0515 56 50.6422 56H7.76224C6.35424 56 5 54.9138 5 53.5862V21Z" fill="#B37035"/>
<path d="M53 24.2222C53 23.5476 52.552 23 52 23C51.448 23 51 23.5476 51 24.2222V54.7778C51 55.4524 51.448 56 52 56C52.552 56 53 55.4524 53 54.7778V24.2222Z" fill="#A66831"/>
<path d="M53.5379 33H44.7556C41.0245 33 38 36.1339 38 40C38 43.8661 41.0245 47 44.7556 47H53.5379C53.9115 47 54 46.6864 54 46.3V33.7C54 33.3136 53.9115 33 53.5379 33Z" fill="#D9C182"/>
<path d="M43.5684 34H43.4595C40.3579 34.332 38 36.912 38 40C38 43.088 40.331 45.668 43.4326 46H43.5684H53V34H43.5684Z" fill="#B37035"/>
<path d="M44.5 42C46.433 42 48 40.8807 48 39.5C48 38.1193 46.433 37 44.5 37C42.567 37 41 38.1193 41 39.5C41 40.8807 42.567 42 44.5 42Z" fill="#263740"/>
<path d="M10.2809 25.9138H7.7207V26.5539H10.2809V25.9138Z" fill="#D9C182"/>
<path d="M16.6832 25.9138H14.123V26.5539H16.6832V25.9138Z" fill="#D9C182"/>
<path d="M23.0817 25.9138H20.5215V26.5539H23.0817V25.9138Z" fill="#D9C182"/>
<path d="M29.482 25.9138H26.9219V26.5539H29.482V25.9138Z" fill="#D9C182"/>
<path d="M35.8785 25.9138H33.3184V26.5539H35.8785V25.9138Z" fill="#D9C182"/>
<path d="M42.2809 25.9138H39.7207V26.5539H42.2809V25.9138Z" fill="#D9C182"/>
<path d="M48.6813 25.9138H46.1211V26.5539H48.6813V25.9138Z" fill="#D9C182"/>
<path d="M10.2809 53.4355H7.7207V54.0756H10.2809V53.4355Z" fill="#D9C182"/>
<path d="M16.6832 53.4355H14.123V54.0756H16.6832V53.4355Z" fill="#D9C182"/>
<path d="M23.0817 53.4355H20.5215V54.0756H23.0817V53.4355Z" fill="#D9C182"/>
<path d="M29.482 53.4355H26.9219V54.0756H29.482V53.4355Z" fill="#D9C182"/>
<path d="M35.8785 53.4355H33.3184V54.0756H35.8785V53.4355Z" fill="#D9C182"/>
<path d="M42.2809 53.4355H39.7207V54.0756H42.2809V53.4355Z" fill="#D9C182"/>
<path d="M48.6813 53.4355H46.1211V54.0756H48.6813V53.4355Z" fill="#D9C182"/>
</svg>
