<svg width="41" height="41" viewBox="0 0 41 41" fill="none" xmlns="http://www.w3.org/2000/svg">
<path fill-rule="evenodd" clip-rule="evenodd" d="M7.75195 31.3599H33.7051C35.166 31.3599 36.3535 30.188 36.3535 28.7583V13.1333C36.3535 11.6958 35.166 10.5317 33.7051 10.5317H7.75195C6.29102 10.5317 5.10352 11.6958 5.10352 13.1333V28.7583C5.10352 30.1958 6.29102 31.3599 7.75195 31.3599ZM6.4082 13.1333C6.4082 12.4146 7.00977 11.8286 7.75195 11.8286H33.7051C34.4473 11.8286 35.0488 12.4146 35.0488 13.1333V15.0864H6.40039V13.1333H6.4082ZM6.4082 17.688H35.0488V28.7583C35.0488 29.4771 34.4473 30.063 33.7051 30.063H7.75195C7.00977 30.063 6.4082 29.4771 6.4082 28.7583V17.688ZM10.3145 27.4536H14.2207C14.5801 27.4536 14.8691 27.1646 14.8691 26.8052C14.8691 26.4458 14.5801 26.1567 14.2207 26.1567H10.3145C9.95508 26.1567 9.66602 26.4458 9.66602 26.8052C9.66602 27.1646 9.95508 27.4536 10.3145 27.4536Z" fill="#414141"/>
</svg>
