<svg xmlns="http://www.w3.org/2000/svg" viewBox="0 0 512 512" class="icon" fill="#1a237e"><path d="M480.1 125.6H31.8C14.3 125.6.1 139.8.1 157.3v320.6c0 17.5 14.2 31.7 31.7 31.7h448.6c17.5 0 31.7-14.2 31.7-31.7V157.3c0-17.5-14.2-31.7-31.7-31.7h-.3zm-16 352h-416c-8.8 0-16-7.2-16-16v-288c0-8.8 7.2-16 16-16h416c8.8 0 16 7.2 16 16v288c0 8.8-7.2 16-16 16z"></path><path d="M256.1 339.2c-7.4 0-14.5-2.2-20.5-6.3L67.2 220.7c-5.1-3.3-8.1-8.9-8.1-15.1v-.3c0-10 8.2-18.2 18.2-18.2 3.5 0 7 1.1 10 3l153.9 102.5c4.4 3 9.6 4.6 15 4.6s10.5-1.6 15-4.5L425 190.1c3-2 6.5-3.1 10-3.1 10.1 0 18.2 8.2 18.2 18.2v.3c0 6.1-3.1 11.9-8.2 15.2L276.7 333c-6.1 4-13.2 6.2-20.6 6.2z"></path></svg>