<svg xmlns="http://www.w3.org/2000/svg" viewBox="0 0 387.38 471.5" class="icon lpanel" fill="#000000"><path d="M306.38 0H81C36.34 0 0 36.34 0 81v309.5c0 44.66 36.34 81 81 81h225.38c44.66 0 81-36.34 81-81V81c0-44.66-36.34-81-81-81zM81 42h225.38c21.5 0 39 17.5 39 39v70.51H42V81c0-21.5 17.5-39 39-39zm225.38 387.5H81c-21.5 0-39-17.5-39-39V193.51h303.38V390.5c0 21.5-17.5 39-39 39zM171.63 265.42c.03.49.04.99.04 1.48s0 .98-.04 1.47c-.02.49-.06.99-.11 1.48-.05.48-.11.97-.18 1.46-.07.48-.16.97-.26 1.45-.09.48-.2.96-.32 1.43s-.25.95-.4 1.42c-.14.46-.29.93-.46 1.39-.16.46-.34.92-.53 1.37-.18.45-.38.9-.59 1.34-.21.44-.43.88-.66 1.31-.23.44-.47.87-.72 1.28-.25.42-.52.84-.79 1.25-.27.41-.55.81-.84 1.2-.29.4-.6.79-.91 1.17-.3.38-.63.75-.96 1.12-.33.36-.67.72-1.02 1.07-.34.35-.7.69-1.07 1.02-.36.33-.74.65-1.12.96-.38.31-.77.61-1.16.9-.39.29-.8.58-1.21.85-.4.27-.82.53-1.24.78s-.85.5-1.28.72c-.43.23-.87.46-1.31.66-.44.21-.89.41-1.34.6-.45.18-.92.36-1.37.53-.46.16-.93.32-1.4.46a32.517 32.517 0 01-2.85.72c-.48.1-.96.18-1.45.25-.48.08-.97.14-1.46.19s-.98.09-1.47.11c-.49.02-.99.04-1.48.04s-.99-.02-1.48-.04-.98-.06-1.47-.11-.98-.11-1.46-.19c-.48-.07-.97-.15-1.45-.25s-.96-.21-1.43-.33c-.48-.12-.95-.25-1.42-.39s-.93-.3-1.39-.46c-.46-.17-.92-.35-1.37-.53-.45-.19-.9-.39-1.35-.6-.44-.2-.88-.43-1.31-.66-.43-.22-.86-.47-1.28-.72s-.84-.51-1.24-.78c-.41-.27-.81-.56-1.21-.85-.39-.29-.78-.59-1.16-.9-.38-.31-.76-.63-1.12-.96-.36-.33-.72-.67-1.07-1.02-.35-.35-.69-.71-1.02-1.07-.33-.37-.65-.74-.96-1.12-.31-.38-.62-.77-.91-1.17-.29-.39-.57-.79-.84-1.2-.27-.41-.54-.83-.79-1.25a32.08 32.08 0 01-1.38-2.59c-.2-.44-.4-.89-.59-1.34-.19-.45-.36-.91-.53-1.37-.16-.46-.32-.93-.46-1.39-.14-.47-.28-.95-.4-1.42-.11-.47-.22-.95-.32-1.43s-.18-.97-.26-1.45c-.07-.49-.13-.98-.18-1.46-.05-.49-.09-.99-.11-1.48-.03-.49-.04-.98-.04-1.47s0-.99.04-1.48c.02-.49.06-.99.11-1.47.05-.49.11-.98.18-1.47.08-.48.16-.97.26-1.45.1-.47.21-.96.32-1.43.12-.47.26-.95.4-1.41.14-.47.3-.94.46-1.4.17-.46.34-.92.53-1.37.19-.45.39-.9.59-1.34.21-.44.43-.88.66-1.31.23-.43.48-.86.72-1.28a32.338 32.338 0 011.63-2.45c.29-.4.6-.79.91-1.17.31-.38.63-.75.96-1.12.33-.36.67-.72 1.02-1.07.35-.34.71-.69 1.07-1.02.36-.32.74-.65 1.12-.96.38-.31.77-.61 1.16-.9.4-.29.8-.58 1.21-.85.4-.27.82-.53 1.24-.78s.85-.49 1.28-.72.87-.45 1.31-.66c.45-.21.9-.41 1.35-.6.45-.18.91-.36 1.37-.52.46-.17.92-.33 1.39-.47s.94-.27 1.42-.39c.47-.12.95-.23 1.43-.33.48-.09.97-.18 1.45-.25.48-.08.97-.14 1.46-.19s.98-.08 1.47-.11c.99-.05 1.98-.05 2.96 0 .49.03.98.06 1.47.11s.98.11 1.46.19c.49.07.97.16 1.45.25a32.517 32.517 0 012.85.72c.47.14.94.3 1.4.47.45.16.92.34 1.37.52a32.167 32.167 0 013.93 1.98c.42.25.84.51 1.24.78.41.27.82.56 1.21.85.39.29.79.59 1.16.9.38.31.76.64 1.12.96.37.33.73.68 1.08 1.02.34.35.69.71 1.02 1.07.32.37.65.74.96 1.12.31.38.61.77.9 1.17.29.39.58.8.85 1.2a32.51 32.51 0 012.16 3.84c.21.44.41.89.59 1.34.19.45.37.91.53 1.37.17.46.32.93.46 1.4.15.46.28.94.4 1.41s.23.96.32 1.43c.1.48.19.97.26 1.45.07.49.13.98.18 1.47.05.48.09.98.11 1.47zm110 0c.03.49.04.99.04 1.48s0 .98-.04 1.47c-.02.49-.06.99-.11 1.48-.05.48-.11.97-.18 1.46-.07.48-.16.97-.26 1.45-.09.48-.2.96-.32 1.43s-.25.95-.4 1.42c-.14.46-.29.93-.46 1.39-.16.46-.34.92-.53 1.37-.18.45-.38.9-.59 1.34-.21.44-.43.89-.66 1.32-.23.43-.47.86-.72 1.28s-.52.83-.79 1.24c-.27.41-.55.81-.84 1.2a25.901 25.901 0 01-1.87 2.29c-.33.36-.67.72-1.02 1.07-.34.35-.7.69-1.07 1.02-.36.33-.74.65-1.12.96-.38.31-.77.61-1.16.91-.39.29-.8.57-1.21.84-.4.27-.82.53-1.24.78s-.85.5-1.28.72c-.43.23-.87.46-1.31.66-.44.21-.89.41-1.34.6-.45.18-.92.36-1.37.53-.46.16-.93.32-1.4.46a32.517 32.517 0 01-2.85.72c-.48.1-.96.18-1.45.25-.48.08-.97.14-1.46.19s-.98.09-1.47.11c-.49.02-.99.04-1.48.04s-.99-.02-1.48-.04-.98-.06-1.47-.11-.98-.11-1.46-.19c-.48-.07-.97-.15-1.45-.25s-.96-.21-1.43-.33c-.48-.12-.95-.25-1.42-.39s-.93-.3-1.39-.46c-.46-.17-.92-.35-1.37-.53-.45-.19-.9-.39-1.35-.6-.44-.2-.88-.43-1.31-.66-.43-.22-.86-.47-1.28-.72s-.84-.51-1.24-.78c-.41-.27-.81-.55-1.21-.84-.39-.3-.78-.6-1.16-.91-.38-.31-.76-.63-1.12-.96-.36-.33-.72-.67-1.07-1.02-.35-.35-.69-.71-1.02-1.07-.33-.36-.65-.74-.96-1.12-.31-.38-.62-.77-.91-1.17-.29-.39-.57-.79-.84-1.2-.27-.41-.54-.82-.79-1.24-.24-.42-.49-.85-.72-1.28-.23-.43-.45-.88-.66-1.32-.2-.44-.4-.89-.59-1.34-.19-.45-.36-.91-.53-1.37-.16-.46-.32-.93-.46-1.39-.14-.47-.28-.95-.4-1.42-.11-.47-.23-.95-.32-1.43-.1-.48-.18-.97-.26-1.45-.07-.49-.13-.98-.18-1.46-.05-.49-.09-.99-.11-1.48-.03-.49-.04-.98-.04-1.47s0-.99.04-1.48c.02-.49.06-.99.11-1.47.05-.49.11-.98.18-1.47.08-.48.16-.97.26-1.45.09-.47.21-.96.32-1.43.12-.47.26-.95.4-1.42.14-.46.3-.93.46-1.39.17-.46.34-.92.53-1.37.19-.45.39-.9.59-1.34.21-.44.43-.88.66-1.31.23-.43.48-.86.72-1.28a32.338 32.338 0 011.63-2.45c.29-.4.6-.79.91-1.17.31-.38.63-.75.96-1.12.33-.36.67-.72 1.02-1.07.35-.34.71-.69 1.07-1.02.36-.32.74-.65 1.12-.96.38-.31.77-.61 1.16-.9.4-.29.8-.58 1.21-.85.4-.27.82-.53 1.24-.78s.85-.49 1.28-.72.87-.45 1.31-.66c.45-.21.9-.41 1.35-.6.45-.18.91-.36 1.37-.52.46-.17.92-.33 1.39-.47s.94-.27 1.42-.39c.47-.12.95-.23 1.43-.33a36.62 36.62 0 012.91-.44c.49-.04.98-.08 1.47-.11.99-.05 1.98-.05 2.96 0 .49.03.98.07 1.47.11.49.05.98.12 1.46.19.49.07.98.16 1.45.25a32.517 32.517 0 012.85.72c.47.14.94.3 1.4.47.46.16.92.34 1.37.52a32.167 32.167 0 013.93 1.98c.42.25.84.51 1.24.78.41.27.82.56 1.21.85.39.29.79.59 1.16.9.38.31.76.64 1.12.96.37.33.73.68 1.07 1.02.35.35.69.71 1.02 1.07.33.37.66.74.97 1.12a32.338 32.338 0 012.53 3.62 32.194 32.194 0 011.38 2.59c.21.44.41.89.59 1.34.19.45.37.91.53 1.37.17.46.32.93.46 1.39.15.47.28.95.4 1.42s.23.96.32 1.43c.1.48.19.97.26 1.45.07.49.13.98.18 1.47.05.48.09.98.11 1.47zm-110 100c.03.49.04.99.04 1.48s0 .98-.04 1.48c-.02.48-.06.98-.11 1.47-.05.48-.11.97-.18 1.46-.07.48-.16.97-.26 1.45-.09.48-.2.96-.32 1.43s-.25.95-.4 1.42c-.14.46-.29.93-.46 1.39-.16.46-.34.92-.53 1.37-.18.45-.38.9-.59 1.34-.21.44-.43.88-.66 1.32-.23.43-.47.86-.72 1.27-.25.42-.52.84-.79 1.25-.27.41-.55.81-.84 1.2-.29.4-.6.79-.9 1.17-.31.38-.64.75-.97 1.12-.33.36-.67.72-1.02 1.07-.34.35-.7.69-1.07 1.02-.36.33-.74.65-1.12.96-.38.31-.77.61-1.16.91-.39.28-.8.57-1.21.84-.4.27-.82.53-1.24.78s-.85.5-1.28.72c-.43.23-.87.46-1.31.66-.44.21-.89.41-1.35.6-.45.18-.91.36-1.36.53-.46.16-.93.32-1.4.46a32.517 32.517 0 01-2.85.72c-.48.09-.96.18-1.45.25-.48.08-.97.14-1.46.19s-.98.08-1.47.11c-.49.02-.99.04-1.48.04s-.99-.02-1.48-.04c-.49-.03-.98-.06-1.47-.11s-.98-.11-1.46-.19c-.48-.07-.97-.16-1.45-.25-.48-.1-.96-.21-1.43-.33-.48-.12-.95-.25-1.42-.39s-.93-.3-1.39-.46c-.46-.17-.92-.35-1.37-.53-.45-.19-.9-.39-1.35-.6-.44-.2-.88-.43-1.31-.66-.43-.22-.86-.47-1.28-.72s-.83-.51-1.24-.78c-.41-.27-.81-.56-1.21-.84-.39-.3-.78-.6-1.16-.91-.38-.31-.76-.63-1.12-.96-.36-.33-.72-.67-1.07-1.02-.35-.35-.69-.71-1.02-1.07-.33-.37-.65-.74-.96-1.12-.31-.38-.62-.77-.91-1.17-.29-.39-.57-.79-.84-1.2-.27-.41-.53-.83-.78-1.25-.25-.41-.5-.84-.73-1.27-.23-.44-.45-.88-.66-1.32-.2-.44-.4-.89-.59-1.34-.19-.45-.36-.91-.53-1.37-.16-.46-.32-.93-.46-1.39-.14-.47-.28-.95-.4-1.42-.11-.47-.22-.95-.32-1.43s-.18-.97-.26-1.45c-.07-.49-.13-.98-.18-1.46-.05-.49-.09-.99-.11-1.47-.03-.5-.04-.99-.04-1.48s0-.99.04-1.48c.02-.49.06-.99.11-1.47.05-.49.11-.98.18-1.47.08-.48.16-.97.26-1.45.09-.47.21-.96.32-1.43.12-.47.26-.95.4-1.42.14-.46.3-.93.46-1.39.17-.46.34-.92.53-1.37.19-.45.39-.9.59-1.34a32.08 32.08 0 011.38-2.59 32.338 32.338 0 011.63-2.45c.29-.4.6-.79.91-1.17.31-.38.63-.75.96-1.12.33-.36.67-.72 1.02-1.07.34-.34.7-.69 1.07-1.02.36-.32.74-.65 1.12-.96.38-.31.77-.61 1.16-.9.4-.29.8-.58 1.21-.85.4-.27.82-.53 1.24-.78s.85-.49 1.28-.72.87-.45 1.31-.66c.45-.21.9-.41 1.35-.6.45-.18.91-.36 1.37-.52.46-.17.92-.33 1.39-.47s.94-.27 1.42-.39c.47-.12.95-.23 1.43-.33.48-.09.97-.18 1.45-.25.48-.08.97-.14 1.46-.19s.98-.08 1.47-.11c.99-.05 1.98-.05 2.96 0 .49.03.98.06 1.47.11s.98.11 1.46.19c.49.07.97.16 1.45.25a32.517 32.517 0 012.85.72c.47.14.94.3 1.4.47.45.16.92.34 1.37.52a32.167 32.167 0 013.93 1.98c.42.25.84.51 1.24.78.41.27.82.56 1.21.85.39.29.78.59 1.16.9.38.31.76.64 1.12.96.37.33.73.68 1.07 1.02.35.35.69.71 1.02 1.07.33.37.66.74.97 1.12.3.38.61.77.9 1.17a32.338 32.338 0 011.63 2.45 32.194 32.194 0 011.38 2.59c.21.44.41.89.59 1.34.19.45.37.91.53 1.37.17.46.32.93.46 1.39.15.47.28.95.4 1.42s.23.96.32 1.43c.1.48.19.97.26 1.45.07.49.13.98.18 1.47.05.48.09.98.11 1.47zm110 0c.03.49.04.99.04 1.48s0 .98-.04 1.48c-.02.48-.06.98-.11 1.47-.05.48-.11.98-.18 1.46-.07.48-.16.97-.26 1.45-.09.48-.2.96-.32 1.43s-.25.95-.4 1.42c-.14.46-.29.93-.46 1.39-.16.46-.34.92-.53 1.37-.18.45-.38.9-.59 1.34-.21.44-.43.89-.66 1.32-.23.43-.47.86-.72 1.28-.25.41-.52.83-.79 1.24-.27.41-.55.81-.84 1.2-.29.4-.59.79-.9 1.17-.31.38-.64.75-.97 1.12-.33.36-.67.72-1.02 1.07-.34.35-.7.69-1.07 1.02-.36.33-.74.65-1.12.96-.38.31-.77.61-1.16.91-.39.28-.8.57-1.21.84-.4.27-.82.53-1.24.78s-.85.5-1.28.72c-.43.23-.87.46-1.31.66-.44.21-.89.41-1.34.6-.45.18-.92.36-1.37.53-.46.16-.93.32-1.4.46a32.517 32.517 0 01-2.85.72c-.48.1-.96.18-1.45.25-.48.08-.97.14-1.46.19s-.98.08-1.47.11c-.49.02-.99.04-1.48.04s-.99-.02-1.48-.04c-.49-.03-.98-.06-1.47-.11s-.98-.11-1.46-.19c-.48-.07-.97-.15-1.45-.25s-.96-.21-1.43-.33c-.48-.12-.95-.25-1.42-.39s-.93-.3-1.39-.46c-.46-.17-.92-.35-1.37-.53-.45-.19-.9-.39-1.35-.6-.44-.2-.88-.43-1.31-.66-.43-.22-.86-.47-1.28-.72s-.84-.51-1.24-.78c-.41-.27-.81-.56-1.21-.84-.39-.3-.78-.6-1.16-.91-.38-.31-.76-.63-1.12-.96-.36-.33-.72-.67-1.07-1.02-.35-.35-.69-.71-1.02-1.07-.33-.37-.65-.74-.96-1.12-.31-.38-.62-.77-.91-1.17-.29-.39-.57-.79-.84-1.2-.27-.41-.54-.83-.79-1.24-.24-.42-.49-.85-.72-1.28-.23-.43-.45-.88-.66-1.32-.2-.44-.4-.89-.59-1.34-.19-.45-.36-.91-.53-1.37-.16-.46-.32-.93-.46-1.39-.14-.47-.28-.95-.4-1.42-.11-.47-.23-.95-.32-1.43-.1-.48-.18-.97-.26-1.45-.07-.48-.13-.98-.18-1.46-.05-.49-.09-.99-.11-1.47-.03-.5-.04-.99-.04-1.48s0-.99.04-1.48c.02-.49.06-.99.11-1.47.05-.49.11-.98.18-1.47.08-.48.16-.97.26-1.45.09-.47.21-.96.32-1.43.12-.47.26-.95.4-1.41.14-.47.3-.94.46-1.4.17-.46.34-.92.53-1.37.19-.45.39-.9.59-1.34a32.08 32.08 0 011.38-2.59 32.338 32.338 0 011.63-2.45c.29-.4.6-.79.91-1.17.31-.38.63-.75.96-1.12.33-.36.67-.72 1.02-1.07.35-.34.71-.69 1.07-1.02.36-.33.74-.65 1.12-.96.38-.31.77-.61 1.16-.9.4-.29.8-.58 1.21-.85.4-.27.82-.53 1.24-.78s.85-.49 1.28-.72.87-.45 1.31-.66c.45-.21.9-.41 1.35-.6.45-.18.91-.36 1.37-.52.46-.17.92-.33 1.39-.47s.94-.27 1.42-.39c.47-.12.95-.23 1.43-.33.48-.09.97-.18 1.45-.25.48-.08.97-.14 1.46-.19s.98-.08 1.47-.11c.99-.05 1.98-.05 2.96 0 .49.03.98.06 1.47.11s.98.11 1.46.19c.49.07.98.16 1.45.25a32.517 32.517 0 012.85.72c.47.14.94.3 1.4.47.46.16.92.34 1.37.52a32.167 32.167 0 013.93 1.98c.42.25.84.51 1.24.78.41.27.82.56 1.21.85.39.29.79.59 1.16.9.38.31.76.63 1.12.96.37.33.73.68 1.07 1.02.35.35.69.71 1.02 1.07.33.37.66.74.97 1.12a32.338 32.338 0 012.53 3.62 32.08 32.08 0 011.38 2.59c.21.44.41.89.59 1.34.19.45.37.91.53 1.37.17.46.32.93.46 1.4.15.46.28.94.4 1.41s.23.96.32 1.43c.1.48.19.97.26 1.45.07.49.13.98.18 1.47.05.48.09.98.11 1.47z"></path></svg>