<svg xmlns="http://www.w3.org/2000/svg" viewBox="0 0 512 512" class="icon lpanel" fill="#000000"><path d="M256 215.4c-11.6 0-21.1-9.4-21.1-21s9.4-21 21-21h.1c11.6 0 21 9.4 21 21s-9.4 21-21 21z"></path><path d="M385.6 469.4h-36.3c-29 0-52.5-23.6-52.5-52.5v-43.5c0-22.7-18.1-41.4-40.3-41.7-11-.1-21.4 4-29.2 11.8-7.8 7.7-12.1 18-12.1 29.1V417c0 29-23.6 52.5-52.5 52.5h-36.3c-47 0-85.3-38.3-85.3-85.3V220c0-39.4 19.6-76 52.4-97.8.3-.2.6-.4.8-.5l106.5-63.8c34.1-20.4 76.4-20.4 110.4 0l106.4 63.8c.3.2.6.3.8.5 32.8 21.8 52.4 58.4 52.4 97.8v164.1c.1 47.1-38.2 85.3-85.2 85.3zM256 289.7h1.1c45.1.6 81.7 38.1 81.7 83.7v43.5c0 5.8 4.7 10.5 10.5 10.5h36.3c23.9 0 43.3-19.4 43.3-43.3V220c0-25.2-12.4-48.5-33.3-62.6l-106-63.5a65.347 65.347 0 00-67.2 0l-106.1 63.6c-20.8 14-33.3 37.4-33.3 62.6v164.1c0 23.9 19.4 43.3 43.3 43.3h36.3c5.8 0 10.5-4.7 10.5-10.5v-44.4c0-22.3 8.7-43.3 24.6-58.9 15.8-15.5 36.4-24 58.3-24z"></path></svg>