<svg xmlns="http://www.w3.org/2000/svg" viewBox="0 0 512 512" class="icon lpanel" fill="#000000"><path d="M212.3 364.2h-42.1c-11.5 0-20.8-9.3-20.8-20.8s9.3-20.8 20.8-20.8h42.1c11.5 0 20.8 9.3 20.8 20.8s-9.3 20.8-20.8 20.8z"></path><path d="M422.4 144.4L327 49.1c-13.9-13.9-32.5-21.6-52.2-21.6H145.2c-44.2 0-80.1 35.9-80.1 80.1V411c0 44.2 35.9 80.1 80.1 80.1H364c44.2 0 80.1-36 80.1-80.1V196.6c0-19.7-7.7-38.2-21.7-52.2zm-29.3 29.4c.6.6 1.2 1.2 1.7 1.9h-54.1c-21.3 0-38.6-17.3-38.6-38.6V82.9l91 90.9zm9.4 237.1c0 21.3-17.3 38.6-38.6 38.6H145.2c-21.3 0-38.6-17.3-38.6-38.6V107.6c0-21.3 17.3-38.6 38.6-38.6h117c-1.1 2.5-1.6 5.2-1.6 8.1v60c0 44.2 35.9 80.1 80.1 80.1h54.9c2.4 0 4.8-.4 7-1.2v194.9z"></path></svg>