<svg xmlns="http://www.w3.org/2000/svg" viewBox="0 0 386.82 463.39" class="icon align-top">
    <path
        d="M305.81 107.71h-14.14v-9.45c0-26.24-10.22-50.92-28.78-69.48C244.33 10.22 219.65 0 193.41 0c-54.18 0-98.26 44.08-98.26 98.26v9.45H81.01C36.34 107.71 0 144.05 0 188.72v193.66c0 44.67 36.34 81.01 81.01 81.01h224.8c44.67 0 81.01-36.34 81.01-81.01V188.72c0-44.67-36.34-81.01-81.01-81.01zm-168.66-9.45c0-31.02 25.24-56.26 56.26-56.26 15.02 0 29.15 5.85 39.78 16.48 10.62 10.63 16.48 24.76 16.48 39.78v9.45H137.15v-9.45zm207.67 284.12c0 21.51-17.5 39.01-39.01 39.01H81.01c-21.51 0-39.01-17.5-39.01-39.01V188.72c0-21.51 17.5-39.01 39.01-39.01h224.8c21.51 0 39.01 17.5 39.01 39.01v193.66z">
    </path>
    <path
        d="M196.32 364c-20.08 0-36.42-16.34-36.42-36.43s16.34-36.42 36.42-36.42 36.42 16.34 36.42 36.42S216.4 364 196.32 364zm0-43.85c-4.09 0-7.42 3.33-7.42 7.42s3.33 7.43 7.42 7.43 7.42-3.33 7.42-7.43-3.33-7.42-7.42-7.42z"
        fill="#200"></path>
</svg>