<svg xmlns="http://www.w3.org/2000/svg" viewBox="0 0 472.02 412.53"
    class="icon danger align-middle">
    <path
        d="M465.87 221.11l-75.16 75.15c-4.1 4.1-9.47 6.15-14.84 6.15s-10.75-2.05-14.85-6.15c-8.2-8.2-8.2-21.49 0-29.7l39.3-39.3H257.57c-11.6 0-21-9.4-21-21s9.4-21 21-21h142.75l-39.3-39.31c-8.2-8.2-8.2-21.49 0-29.7 8.2-8.2 21.49-8.2 29.69 0l75.16 75.16c8.2 8.2 8.2 21.5 0 29.7z">
    </path>
    <path
        d="M206.26 412.53C92.53 412.53 0 320 0 206.26S92.53 0 206.26 0c45.23 0 88.17 14.37 124.18 41.56 9.26 6.99 11.09 20.16 4.11 29.41-6.99 9.26-20.16 11.09-29.41 4.11C276.48 53.44 242.29 42 206.27 42c-90.58 0-164.26 73.69-164.26 164.26s73.69 164.26 164.26 164.26c35.61 0 69.48-11.2 97.95-32.39 9.31-6.92 22.46-4.99 29.38 4.31 6.92 9.3 4.99 22.46-4.31 29.38-35.78 26.62-78.32 40.69-123.03 40.69z">
    </path>
</svg>