<svg width="57" height="41" viewBox="0 0 57 41" fill="none" xmlns="http://www.w3.org/2000/svg">
<path d="M10.1897 17.4253C9.71122 6.66011 19.5593 6.16173 24.5432 7.25818C25.7392 -0.397015 35.4081 -0.516662 40.093 0.380414C46.5521 1.57654 47.3694 8.45428 46.9707 11.7436C46.4923 18.2027 39.1959 19.8175 35.6075 19.8175C34.5 24 30.507 26.0972 29.0119 26.3962H23.9283H18.2636C12.0438 24.7216 10.2894 19.7178 10.1897 17.4253Z" fill="#3A73B5"/>
<path d="M35.9053 15.631C35.1876 9.17194 30.8217 7.35781 28.7285 7.25813C29.9246 3.1913 36.2043 3.76943 39.1946 4.56685C42.3046 5.52375 43.082 8.15523 43.082 9.35136C43.5605 14.6143 38.4969 15.7307 35.9053 15.631Z" fill="white"/>
<path d="M28.1318 11.1456C28.2314 12.1424 29.0286 14.3752 31.4208 15.3321C31.5208 14.3353 31.003 12.1025 28.1318 11.1456Z" fill="white"/>
<path d="M18.2643 22.2098C11.6676 19.1381 14.6585 11.6623 18.2643 11.1456H24.2448C24.2448 18.9205 31.2924 19.1381 31.1226 19.8176C30.8834 20.7745 29.0293 21.8111 28.1322 22.2098H18.2643Z" fill="white"/>
<path d="M6.69389 30.7273V38H5.52202L2.09517 33.0462H2.0348V38H0.71733V30.7273H1.89631L5.3196 35.6847H5.38352V30.7273H6.69389ZM10.4874 38.1065C9.94052 38.1065 9.46822 37.9929 9.07049 37.7656C8.67513 37.536 8.37092 37.2116 8.15785 36.7926C7.94478 36.3712 7.83825 35.8752 7.83825 35.3047C7.83825 34.7436 7.94478 34.2512 8.15785 33.8274C8.37328 33.4013 8.67395 33.0698 9.05984 32.8331C9.44573 32.594 9.89909 32.4744 10.4199 32.4744C10.7561 32.4744 11.0733 32.5289 11.3716 32.6378C11.6723 32.7443 11.9374 32.91 12.1671 33.1349C12.3991 33.3598 12.5814 33.6463 12.714 33.9943C12.8465 34.34 12.9128 34.7519 12.9128 35.2301V35.6243H8.44194V34.7578H11.6806C11.6782 34.5116 11.6249 34.2926 11.5208 34.1009C11.4166 33.9067 11.271 33.754 11.084 33.6428C10.8993 33.5315 10.6839 33.4759 10.4377 33.4759C10.1749 33.4759 9.94407 33.5398 9.74521 33.6676C9.54634 33.7931 9.39128 33.9588 9.28001 34.1648C9.17111 34.3684 9.11547 34.5921 9.1131 34.8359V35.5923C9.1131 35.9096 9.17111 36.1818 9.28711 36.4091C9.40311 36.634 9.56528 36.8068 9.77362 36.9276C9.98195 37.0459 10.2258 37.1051 10.5051 37.1051C10.6922 37.1051 10.8614 37.0791 11.013 37.027C11.1645 36.9725 11.2959 36.8932 11.4071 36.7891C11.5184 36.6849 11.6025 36.5559 11.6593 36.402L12.8596 36.5369C12.7838 36.8542 12.6394 37.1312 12.4263 37.3679C12.2156 37.6023 11.9457 37.7846 11.6167 37.9148C11.2876 38.0426 10.9112 38.1065 10.4874 38.1065ZM16.7241 32.5455V33.5398H13.5884V32.5455H16.7241ZM14.3626 31.2386H15.6481V36.3594C15.6481 36.5322 15.6741 36.6648 15.7262 36.7571C15.7807 36.8471 15.8517 36.9086 15.9393 36.9418C16.0269 36.9749 16.1239 36.9915 16.2305 36.9915C16.311 36.9915 16.3844 36.9856 16.4506 36.9737C16.5193 36.9619 16.5714 36.9512 16.6069 36.9418L16.8235 37.9467C16.7549 37.9704 16.6566 37.9964 16.5288 38.0249C16.4033 38.0533 16.2494 38.0698 16.0671 38.0746C15.7451 38.084 15.4551 38.0355 15.1971 37.929C14.939 37.8201 14.7343 37.652 14.5827 37.4247C14.4336 37.1974 14.3602 36.9134 14.3626 36.5724V31.2386ZM17.9732 38V30.7273H19.2587V33.4474H19.312C19.3783 33.3149 19.4718 33.174 19.5925 33.0249C19.7132 32.8733 19.8766 32.7443 20.0826 32.6378C20.2885 32.5289 20.5513 32.4744 20.8709 32.4744C21.2923 32.4744 21.6723 32.5821 22.0108 32.7976C22.3517 33.0107 22.6216 33.3267 22.8205 33.7457C23.0217 34.1624 23.1223 34.6738 23.1223 35.2798C23.1223 35.8788 23.0241 36.3878 22.8276 36.8068C22.6311 37.2259 22.3636 37.5455 22.025 37.7656C21.6865 37.9858 21.303 38.0959 20.8745 38.0959C20.562 38.0959 20.3027 38.0438 20.0968 37.9396C19.8908 37.8355 19.7251 37.71 19.5996 37.5632C19.4765 37.4141 19.3806 37.2732 19.312 37.1406H19.2374V38H17.9732ZM19.2338 35.2727C19.2338 35.6255 19.2836 35.9344 19.383 36.1996C19.4848 36.4647 19.6304 36.6719 19.8198 36.821C20.0115 36.9678 20.2435 37.0412 20.5158 37.0412C20.7999 37.0412 21.0378 36.9654 21.2296 36.8139C21.4213 36.66 21.5658 36.4505 21.6628 36.1854C21.7623 35.9179 21.812 35.6136 21.812 35.2727C21.812 34.9342 21.7634 34.6335 21.6664 34.3707C21.5693 34.108 21.4249 33.902 21.2331 33.7528C21.0414 33.6037 20.8023 33.5291 20.5158 33.5291C20.2412 33.5291 20.008 33.6013 19.8162 33.7457C19.6245 33.8902 19.4789 34.0926 19.3794 34.353C19.2824 34.6134 19.2338 34.92 19.2338 35.2727ZM25.7848 38.1101C25.4392 38.1101 25.1278 38.0485 24.8509 37.9254C24.5762 37.8 24.3584 37.6153 24.1974 37.3714C24.0388 37.1276 23.9595 36.8269 23.9595 36.4695C23.9595 36.1617 24.0163 35.9072 24.13 35.706C24.2436 35.5047 24.3987 35.3438 24.5952 35.223C24.7917 35.1023 25.013 35.0111 25.2592 34.9496C25.5078 34.8857 25.7647 34.8395 26.0298 34.8111C26.3494 34.7779 26.6087 34.7483 26.8075 34.7223C27.0064 34.6939 27.1508 34.6513 27.2408 34.5945C27.3331 34.5353 27.3793 34.4441 27.3793 34.321V34.2997C27.3793 34.0322 27.3 33.825 27.1413 33.6783C26.9827 33.5315 26.7543 33.4581 26.456 33.4581C26.1411 33.4581 25.8913 33.5268 25.7067 33.6641C25.5244 33.8014 25.4013 33.9635 25.3374 34.1506L24.1371 33.9801C24.2318 33.6487 24.388 33.3717 24.6058 33.1491C24.8236 32.9242 25.09 32.7562 25.4048 32.6449C25.7197 32.5312 26.0677 32.4744 26.4489 32.4744C26.7116 32.4744 26.9732 32.5052 27.2337 32.5668C27.4941 32.6283 27.732 32.7301 27.9474 32.8722C28.1629 33.0118 28.3357 33.2024 28.4659 33.4439C28.5985 33.6854 28.6648 33.9872 28.6648 34.3494V38H27.429V37.2507H27.3864C27.3082 37.4022 27.1982 37.5443 27.0561 37.6768C26.9164 37.8071 26.7401 37.9124 26.527 37.9929C26.3163 38.071 26.0689 38.1101 25.7848 38.1101ZM26.1186 37.1655C26.3767 37.1655 26.6004 37.1146 26.7898 37.0128C26.9792 36.9086 27.1248 36.7713 27.2266 36.6009C27.3307 36.4304 27.3828 36.2446 27.3828 36.0433V35.4006C27.3426 35.4337 27.2739 35.4645 27.1768 35.4929C27.0821 35.5213 26.9756 35.5462 26.8572 35.5675C26.7389 35.5888 26.6217 35.6077 26.5057 35.6243C26.3897 35.6409 26.2891 35.6551 26.2038 35.6669C26.0121 35.6929 25.8404 35.7356 25.6889 35.7947C25.5374 35.8539 25.4179 35.9368 25.3303 36.0433C25.2427 36.1475 25.1989 36.2824 25.1989 36.4482C25.1989 36.6849 25.2853 36.8636 25.4581 36.9844C25.6309 37.1051 25.8511 37.1655 26.1186 37.1655ZM31.2429 34.804V38H29.9574V32.5455H31.1861V33.4723H31.25C31.3755 33.1669 31.5755 32.9242 31.8501 32.7443C32.1271 32.5644 32.4692 32.4744 32.8764 32.4744C33.2528 32.4744 33.5807 32.5549 33.8601 32.7159C34.1418 32.8769 34.3596 33.1101 34.5135 33.4155C34.6697 33.7209 34.7467 34.0914 34.7443 34.527V38H33.4588V34.7259C33.4588 34.3613 33.3641 34.076 33.1747 33.87C32.9877 33.6641 32.7285 33.5611 32.397 33.5611C32.1721 33.5611 31.9721 33.6108 31.7969 33.7102C31.6241 33.8073 31.4879 33.9482 31.3885 34.1328C31.2914 34.3175 31.2429 34.5412 31.2429 34.804ZM37.223 36.2884L37.2195 34.7365H37.4254L39.3857 32.5455H40.8878L38.4766 35.2301H38.2102L37.223 36.2884ZM36.0511 38V30.7273H37.3366V38H36.0511ZM39.4744 38L37.6989 35.5178L38.5653 34.6122L41.0121 38H39.4744ZM41.7445 38V32.5455H43.03V38H41.7445ZM42.3908 31.7713C42.1872 31.7713 42.012 31.7038 41.8652 31.5689C41.7185 31.4316 41.6451 31.267 41.6451 31.0753C41.6451 30.8812 41.7185 30.7166 41.8652 30.5817C42.012 30.4444 42.1872 30.3757 42.3908 30.3757C42.5968 30.3757 42.772 30.4444 42.9164 30.5817C43.0632 30.7166 43.1365 30.8812 43.1365 31.0753C43.1365 31.267 43.0632 31.4316 42.9164 31.5689C42.772 31.7038 42.5968 31.7713 42.3908 31.7713ZM45.6374 34.804V38H44.3519V32.5455H45.5806V33.4723H45.6445C45.77 33.1669 45.9701 32.9242 46.2447 32.7443C46.5217 32.5644 46.8638 32.4744 47.271 32.4744C47.6474 32.4744 47.9753 32.5549 48.2546 32.7159C48.5363 32.8769 48.7541 33.1101 48.908 33.4155C49.0643 33.7209 49.1412 34.0914 49.1388 34.527V38H47.8533V34.7259C47.8533 34.3613 47.7586 34.076 47.5692 33.87C47.3822 33.6641 47.123 33.5611 46.7915 33.5611C46.5666 33.5611 46.3666 33.6108 46.1914 33.7102C46.0186 33.8073 45.8825 33.9482 45.783 34.1328C45.686 34.3175 45.6374 34.5412 45.6374 34.804ZM52.8178 40.1591C52.3562 40.1591 51.9596 40.0964 51.6282 39.9709C51.2968 39.8478 51.0304 39.6821 50.8292 39.4737C50.628 39.2654 50.4883 39.0346 50.4102 38.7812L51.5678 38.5007C51.6199 38.6072 51.6957 38.7126 51.7951 38.8168C51.8945 38.9233 52.0283 39.0109 52.1964 39.0795C52.3668 39.1506 52.5811 39.1861 52.8391 39.1861C53.2037 39.1861 53.5056 39.0973 53.7447 38.9197C53.9838 38.7446 54.1033 38.4557 54.1033 38.0533V37.0199H54.0394C53.9731 37.1525 53.8761 37.2886 53.7482 37.4283C53.6228 37.5679 53.4558 37.6851 53.2475 37.7798C53.0415 37.8745 52.7823 37.9219 52.4698 37.9219C52.0508 37.9219 51.6708 37.8236 51.3299 37.6271C50.9914 37.4283 50.7215 37.1323 50.5202 36.7393C50.3214 36.344 50.2219 35.8492 50.2219 35.255C50.2219 34.656 50.3214 34.1506 50.5202 33.7386C50.7215 33.3243 50.9925 33.0107 51.3335 32.7976C51.6744 32.5821 52.0543 32.4744 52.4734 32.4744C52.793 32.4744 53.0558 32.5289 53.2617 32.6378C53.4701 32.7443 53.6358 32.8733 53.7589 33.0249C53.882 33.174 53.9755 33.3149 54.0394 33.4474H54.1104V32.5455H55.3782V38.0888C55.3782 38.5552 55.2669 38.9411 55.0444 39.2464C54.8219 39.5518 54.5176 39.7803 54.1317 39.9318C53.7459 40.0833 53.3079 40.1591 52.8178 40.1591ZM52.8285 36.9134C53.1007 36.9134 53.3327 36.8471 53.5245 36.7145C53.7163 36.5819 53.8619 36.3913 53.9613 36.1428C54.0607 35.8942 54.1104 35.5959 54.1104 35.2479C54.1104 34.9046 54.0607 34.6039 53.9613 34.3459C53.8642 34.0878 53.7198 33.8878 53.5281 33.7457C53.3387 33.6013 53.1055 33.5291 52.8285 33.5291C52.542 33.5291 52.3029 33.6037 52.1112 33.7528C51.9194 33.902 51.775 34.1068 51.6779 34.3672C51.5808 34.6252 51.5323 34.9188 51.5323 35.2479C51.5323 35.5817 51.5808 35.8741 51.6779 36.125C51.7773 36.3736 51.9229 36.5677 52.1147 36.7074C52.3088 36.8447 52.5468 36.9134 52.8285 36.9134Z" fill="#696969"/>
</svg>
