<svg xmlns="http://www.w3.org/2000/svg" viewBox="0 0 47 47" class="icon invoice-icon"><circle data-path-name="bg" fill="#1a237e" cx="23.5" cy="23.5" r="23.2"></circle><path data-path-name="shadow" fill="#22286a" d="M46.4 27.3c-4.9-4.9-9.8-9.8-14.7-14.6-5.5 7.2-11 14.5-16.5 21.7L29 46.1c9-2.2 15.9-9.6 17.4-18.8z"></path><path data-path-name="invoice" fill="#ffffff" d="M14.9 33.3V13.7c0-.9.7-1.6 1.6-1.6h14c.9 0 1.6.7 1.6 1.6v19.7c0 .9-.7 1.6-1.6 1.6h-14c-.9-.1-1.6-.8-1.6-1.7"></path><path data-path-name="bg" fill="#1a237e" d="M20.9 16.6c0 .8-.7 1.5-1.5 1.5s-1.5-.7-1.5-1.5.7-1.5 1.5-1.5c.9 0 1.5.7 1.5 1.5M27.6 23.7H19a.9.9 0 01-.9-.9c0-.5.4-.9.9-.9h8.6c.5 0 .9.4.9.9-.1.5-.4.9-.9.9M27.6 30.1H19a.9.9 0 01-.9-.9c0-.5.4-.9.9-.9h8.6c.5 0 .9.4.9.9-.1.6-.4.9-.9.9"></path></svg>