<svg xmlns="http://www.w3.org/2000/svg" viewBox="0 0 512 512" class="icon lpanel" fill="#000000"><path d="M340.7 253.5c-4.1 4.1-9.5 6.1-14.8 6.1-5.4 0-10.8-2-14.9-6.1l-37.4-37.4v130.4c0 11.6-9.4 21-21 21s-21-9.4-21-21V216.2l-37.4 37.4c-8.2 8.2-21.5 8.2-29.7 0s-8.2-21.5 0-29.7l73.2-73.2c8.2-8.2 21.5-8.2 29.7 0l73.2 73.2c8.3 8.1 8.3 21.4.1 29.6z"></path><path d="M422.4 409c-4.4 0-8.9-1.4-12.7-4.3-9.2-7-11-20.2-4-29.4 27.8-36.6 41.5-82.2 38.6-128.3-3-46.6-22.8-90.4-55.8-123.4-36.3-36.3-84.5-56.2-135.8-56.2-51.3 0-99.5 20-135.8 56.2-33 33-52.9 76.9-55.9 123.4-3 46.2 10.7 91.7 38.6 128.3 7 9.2 5.2 22.4-4 29.4s-22.4 5.2-29.4-4c-33.9-44.6-50.6-100.2-47-156.4C22.8 187.5 47 134.1 87.3 93.9c44.2-44.2 103-68.5 165.4-68.5 62.5 0 121.3 24.4 165.5 68.6 40.3 40.3 64.4 93.7 68 150.5 3.6 56.2-13.1 111.8-47.1 156.4-4.1 5.3-10.4 8.1-16.7 8.1zm42.2 82h-424c-11.6 0-21-9.4-21-21s9.4-21 21-21h424c11.6 0 21 9.4 21 21s-9.4 21-21 21z"></path></svg>