<svg width="121" height="50" viewBox="0 0 121 50" fill="none" xmlns="http://www.w3.org/2000/svg">
<path d="M45.9037 17H39.4842C39.2717 16.9999 39.0661 17.0757 38.9045 17.2137C38.7429 17.3518 38.6359 17.5431 38.6028 17.7531L36.0064 34.2205C35.9945 34.2969 35.9992 34.375 36.0204 34.4494C36.0415 34.5238 36.0785 34.5927 36.1288 34.6514C36.1791 34.7101 36.2416 34.7572 36.3118 34.7895C36.3821 34.8218 36.4585 34.8384 36.5358 34.8383H39.6006C39.8132 34.8384 40.0189 34.7625 40.1806 34.6242C40.3422 34.486 40.4491 34.2945 40.482 34.0843L41.1822 29.6428C41.2151 29.4328 41.3219 29.2414 41.4833 29.1032C41.6447 28.9649 41.8502 28.8889 42.0627 28.8888H44.0949C48.3236 28.8888 50.7642 26.8417 51.4015 22.7852C51.6888 21.0105 51.4137 19.6161 50.583 18.6395C49.6706 17.5672 48.0524 17 45.9037 17ZM46.6443 23.0143C46.2933 25.3187 44.5333 25.3187 42.8315 25.3187H41.8628L42.5424 21.0152C42.5623 20.8893 42.6264 20.7746 42.7233 20.6918C42.8202 20.609 42.9434 20.5635 43.0708 20.5635H43.5148C44.6741 20.5635 45.7676 20.5635 46.3327 21.2246C46.6697 21.619 46.7729 22.2049 46.6443 23.0143ZM65.0929 22.9402H62.0188C61.8914 22.9402 61.7681 22.9857 61.6713 23.0685C61.5744 23.1513 61.5102 23.2659 61.4903 23.3918L61.3542 24.252L61.1393 23.9402C60.4738 22.974 58.9897 22.6509 57.5085 22.6509C54.1115 22.6509 51.21 25.2248 50.645 28.8352C50.3512 30.6363 50.7689 32.3584 51.7901 33.5594C52.7269 34.6637 54.0673 35.1238 55.6621 35.1238C58.3993 35.1238 59.9171 33.3631 59.9171 33.3631L59.7801 34.2176C59.7679 34.294 59.7724 34.3722 59.7932 34.4467C59.8141 34.5212 59.8509 34.5902 59.901 34.6491C59.9512 34.7081 60.0135 34.7554 60.0837 34.7879C60.1539 34.8204 60.2303 34.8373 60.3076 34.8374H63.0767C63.2893 34.8375 63.495 34.7615 63.6567 34.6233C63.8183 34.485 63.9252 34.2935 63.9581 34.0834L65.6195 23.558C65.6318 23.4818 65.6273 23.4038 65.6065 23.3295C65.5856 23.2552 65.5489 23.1862 65.4988 23.1275C65.4488 23.0687 65.3865 23.0216 65.3165 22.9892C65.2464 22.9569 65.1701 22.9401 65.0929 22.9402ZM60.8079 28.9254C60.5113 30.6823 59.1174 31.8617 57.3395 31.8617C56.4469 31.8617 55.7335 31.5753 55.2754 31.0325C54.8211 30.4935 54.6484 29.7264 54.7929 28.8719C55.0698 27.13 56.4872 25.9121 58.2379 25.9121C59.1108 25.9121 59.8204 26.2023 60.2879 26.7497C60.7563 27.3028 60.9422 28.0747 60.8079 28.9254ZM81.4652 22.9402H78.3761C78.2304 22.9404 78.0869 22.9762 77.9582 23.0444C77.8295 23.1126 77.7193 23.2113 77.6373 23.3317L73.3767 29.6099L71.5707 23.5768C71.5153 23.3928 71.4021 23.2315 71.2479 23.1169C71.0937 23.0022 70.9067 22.9403 70.7146 22.9402H67.679C67.5938 22.9399 67.5097 22.9601 67.4339 22.9989C67.358 23.0377 67.2925 23.0941 67.2428 23.1634C67.1932 23.2326 67.1607 23.3128 67.1483 23.3971C67.1358 23.4814 67.1436 23.5675 67.1712 23.6482L70.5738 33.6373L67.3748 38.1549C67.318 38.235 67.2843 38.3292 67.2774 38.4272C67.2705 38.5252 67.2907 38.6232 67.3358 38.7104C67.3808 38.7977 67.449 38.8709 67.5329 38.922C67.6168 38.973 67.7131 39 67.8113 39H70.8967C71.0408 39.0002 71.1827 38.9654 71.3104 38.8987C71.4381 38.832 71.5477 38.7353 71.6298 38.6169L81.9045 23.7806C81.9602 23.7003 81.9929 23.6063 81.999 23.5088C82.0051 23.4113 81.9844 23.314 81.9391 23.2274C81.8938 23.1408 81.8257 23.0683 81.7422 23.0176C81.6587 22.967 81.5629 22.9402 81.4652 22.9402Z" fill="#253B80"/>
<path d="M91.4338 17.0009H85.3181C85.1158 17.001 84.9202 17.0764 84.7664 17.2135C84.6127 17.3506 84.5109 17.5404 84.4794 17.7488L82.0063 34.1029C81.9948 34.1787 81.9991 34.2561 82.0191 34.3299C82.0391 34.4037 82.0741 34.4722 82.1219 34.5305C82.1697 34.5888 82.229 34.6357 82.2958 34.6678C82.3625 34.6999 82.4352 34.7165 82.5088 34.7165H85.6471C85.7887 34.7163 85.9255 34.6634 86.0331 34.5673C86.1406 34.4712 86.2117 34.3383 86.2336 34.1924L86.9355 29.5567C86.9668 29.3482 87.0685 29.1581 87.2223 29.0208C87.3761 28.8835 87.5718 28.808 87.7742 28.8079H89.709C93.7379 28.8079 96.0617 26.7749 96.6697 22.7463C96.9442 20.9838 96.6804 19.599 95.8891 18.6292C95.021 17.5642 93.4804 17.0009 91.4338 17.0009ZM92.1392 22.9739C91.8057 25.2624 90.1293 25.2624 88.5074 25.2624H87.5855L88.2338 20.9885C88.2523 20.8635 88.3132 20.7495 88.4054 20.6672C88.4976 20.5849 88.6149 20.5398 88.7362 20.5399H89.1592C90.2625 20.5399 91.305 20.5399 91.8433 21.1965C92.1643 21.5881 92.2617 22.17 92.1392 22.9739ZM109.711 22.9002H106.785C106.663 22.8999 106.546 22.9449 106.454 23.0273C106.362 23.1096 106.301 23.2237 106.282 23.3488L106.153 24.203L105.947 23.8934C105.313 22.9338 103.9 22.613 102.489 22.613C99.2537 22.613 96.4909 25.1691 95.9526 28.7547C95.6737 30.5434 96.0697 32.2537 97.0425 33.4464C97.9366 34.5431 99.2117 35 100.731 35C103.338 35 104.784 33.2515 104.784 33.2515L104.653 34.1001C104.642 34.1761 104.646 34.2539 104.666 34.328C104.686 34.4021 104.721 34.4708 104.769 34.5293C104.817 34.5879 104.877 34.6349 104.944 34.667C105.011 34.6992 105.084 34.7157 105.157 34.7156H107.794C107.997 34.7155 108.192 34.6399 108.346 34.5027C108.5 34.3654 108.602 34.1753 108.633 33.9667L110.216 23.5138C110.228 23.4379 110.223 23.3603 110.203 23.2864C110.182 23.2125 110.147 23.1441 110.099 23.0858C110.051 23.0275 109.992 22.9807 109.925 22.9487C109.858 22.9167 109.785 22.9001 109.711 22.9002ZM105.63 28.8443C105.349 30.5891 104.019 31.7603 102.326 31.7603C101.477 31.7603 100.796 31.4759 100.36 30.9369C99.9269 30.4016 99.7642 29.6397 99.9001 28.7911C100.166 27.0612 101.514 25.8517 103.182 25.8517C104.013 25.8517 104.689 26.1399 105.134 26.6836C105.582 27.2328 105.759 27.9994 105.63 28.8443ZM113.163 17.4495L110.654 34.1029C110.642 34.1787 110.646 34.2561 110.666 34.3299C110.686 34.4037 110.721 34.4722 110.769 34.5305C110.817 34.5888 110.876 34.6357 110.943 34.6678C111.01 34.6999 111.083 34.7165 111.156 34.7165H113.679C114.099 34.7165 114.454 34.3994 114.519 33.9677L116.994 17.6145C117.005 17.5387 117.001 17.4612 116.981 17.3874C116.961 17.3135 116.926 17.245 116.878 17.1866C116.83 17.1282 116.771 17.0813 116.704 17.0491C116.638 17.0169 116.565 17.0001 116.491 17H113.666C113.545 17.0004 113.427 17.0459 113.335 17.1283C113.243 17.2107 113.182 17.3245 113.163 17.4495Z" fill="#179BD7"/>
<path d="M10.8115 38L11.3013 34.9295L10.2102 34.9046H5L8.62082 12.2477C8.63159 12.1785 8.66722 12.1154 8.72121 12.0699C8.77519 12.0244 8.84393 11.9996 8.9149 12H17.7C20.6165 12 22.6292 12.5989 23.6801 13.7811C24.1727 14.3357 24.4865 14.9152 24.6382 15.5529C24.7974 16.2221 24.8002 17.0216 24.6447 17.9967L24.6335 18.0679V18.6927L25.1261 18.9682C25.5022 19.1562 25.8403 19.4105 26.1236 19.7187C26.5451 20.1928 26.8176 20.7955 26.9328 21.5099C27.0518 22.2447 27.0124 23.1191 26.8176 24.109C26.5928 25.2477 26.2294 26.2395 25.7387 27.051C25.3057 27.778 24.7235 28.4076 24.0294 28.8995C23.3776 29.3561 22.603 29.7027 21.7273 29.9246C20.8788 30.1427 19.9113 30.2527 18.8501 30.2527H18.1664C17.6775 30.2527 17.2027 30.4265 16.8299 30.7379C16.4577 31.0527 16.2108 31.4877 16.1331 31.9654L16.0816 32.2417L15.2162 37.6534L15.1769 37.8521C15.1666 37.915 15.1488 37.9464 15.1225 37.9677C15.0971 37.9882 15.0655 37.9996 15.0326 38H10.8115Z" fill="#253B80"/>
<path d="M25.5222 17C25.4948 17.1749 25.4634 17.3538 25.4282 17.5375C24.2159 23.7446 20.0686 25.8889 14.7718 25.8889H12.0749C11.4271 25.8889 10.8812 26.3581 10.7803 26.9953L9.39949 35.7288L9.00847 38.2044C8.9929 38.3026 8.99884 38.403 9.02591 38.4987C9.05297 38.5944 9.1005 38.6831 9.16523 38.7587C9.22996 38.8343 9.31035 38.8951 9.40087 38.9367C9.49138 38.9784 9.58988 38.9999 9.68957 39H14.4729C15.0393 39 15.5205 38.5895 15.6097 38.0324L15.6567 37.79L16.5573 32.0902L16.6151 31.7774C16.7033 31.2184 17.1855 30.8079 17.7519 30.8079H18.4673C23.1017 30.8079 26.7296 28.9314 27.7899 23.5013C28.2329 21.2329 28.0036 19.3388 26.8315 18.0067C26.46 17.5946 26.0163 17.2535 25.5222 17Z" fill="#179BD7"/>
<path d="M24.7957 17.3972C24.4281 17.2951 24.0542 17.2154 23.6761 17.1585C22.9291 17.0483 22.1741 16.9954 21.4183 17.0003H14.5761C14.3157 17.0001 14.0638 17.0894 13.866 17.252C13.6682 17.4147 13.5374 17.6399 13.4974 17.887L12.0419 26.7417L12 27C12.0453 26.7181 12.1942 26.4611 12.4197 26.2755C12.6452 26.0899 12.9324 25.988 13.2294 25.9881H15.7906C20.8208 25.9881 24.7594 24.0261 25.9107 18.3501C25.9451 18.182 25.9739 18.0184 26 17.8584C25.6962 17.7054 25.3796 17.5772 25.0535 17.475C24.968 17.4477 24.8821 17.4218 24.7957 17.3972Z" fill="#222D65"/>
<path d="M13.1229 18.1739C13.1634 17.9162 13.2966 17.6813 13.4984 17.5118C13.7002 17.3424 13.9572 17.2497 14.2227 17.2505H21.1993C22.0258 17.2505 22.7973 17.3036 23.5014 17.4154C23.9779 17.4889 24.4477 17.5989 24.9068 17.7443C25.2531 17.8571 25.5748 17.9903 25.8718 18.1441C26.221 15.9571 25.869 14.4681 24.6648 13.1198C23.3372 11.6355 20.9412 11 17.8752 11H8.97421C8.34792 11 7.81367 11.4473 7.71688 12.0557L4.0094 35.1316C3.99213 35.2387 3.99871 35.3482 4.02866 35.4526C4.05862 35.5571 4.11125 35.6538 4.18294 35.7364C4.25463 35.8189 4.34367 35.8852 4.44395 35.9307C4.54422 35.9762 4.65334 35.9999 4.7638 36H10.2591L11.6388 27.4042L13.1229 18.1739Z" fill="#253B80"/>
</svg>
