<svg width="91" height="30" viewBox="0 0 91 30" fill="none" xmlns="http://www.w3.org/2000/svg">
<path d="M66.2514 8.02758L63.2138 8.02658C62.8824 8.02658 62.6138 8.27987 62.6137 8.59237L62.6135 8.99202H62.8242C64.1958 8.99202 64.7059 9.20539 64.7059 10.3837V12.0588L66.2498 12.0593C66.5811 12.0595 66.8497 11.8063 66.8499 11.4938L66.8509 8.59354C66.8509 8.28104 66.5825 8.02775 66.2514 8.02758ZM49.673 12.5305C49.5328 12.3645 49.2678 12.3415 49.002 12.3415H48.8028C48.1406 12.3415 47.8809 12.5341 47.7343 13.1333L45.8944 20.3462C45.6648 21.2327 45.3421 21.3947 44.79 21.3947C44.1139 21.3947 43.8432 21.2425 43.5738 20.3427L41.4898 13.1298C41.3173 12.5258 41.0629 12.3415 40.4006 12.3415H40.2231C39.9558 12.3415 39.6896 12.3648 39.5529 12.5329C39.416 12.7013 39.4622 12.9525 39.5328 13.1995L41.6388 20.475C42.0338 21.8673 42.5034 23.0198 44.258 23.0198C44.5854 23.0198 44.8884 22.9769 45.1404 22.8968C44.6082 24.4752 44.0668 25.1714 42.4704 25.3261C42.1465 25.3515 41.9359 25.3953 41.8187 25.5436C41.6968 25.6975 41.7245 25.9178 41.7681 26.1146L41.812 26.3012C41.9072 26.7326 42.0696 27 42.5831 27C42.6371 27 42.6951 26.9973 42.7573 26.9923C45.1411 26.8452 46.4183 25.6348 47.1656 22.8146L49.7159 13.1944C49.7763 12.9476 49.8128 12.6963 49.673 12.5305ZM36.8457 18.0721V19.5281C36.8457 20.7151 36.3791 21.4023 33.994 21.4023C32.4182 21.4023 31.6522 20.8645 31.6522 19.7582C31.6522 18.5449 32.4207 18.0721 34.393 18.0721H36.8457ZM33.994 12.0353C32.6936 12.0353 31.8788 12.1892 31.5697 12.2476C31.0225 12.3596 30.7936 12.5013 30.7936 13.0883V13.2556C30.7936 13.4856 30.8297 13.6449 30.9071 13.757C30.9972 13.8875 31.1426 13.9537 31.339 13.9537C31.4347 13.9537 31.5458 13.9386 31.6783 13.9073C31.9909 13.8337 32.9899 13.6813 34.0827 13.6813C36.0453 13.6813 36.8457 14.1941 36.8457 15.4509V16.5725H34.3708C31.1893 16.5725 29.7073 17.5846 29.7073 19.7582C29.7073 21.8663 31.2376 23.0273 34.0162 23.0273C37.3181 23.0273 38.7906 21.9676 38.7906 19.5909V15.4509C38.7906 13.1526 37.2217 12.0353 33.994 12.0353ZM27.7568 13.4297C27.7568 15.1605 27.2883 16.0985 24.8164 16.0985H21.0113V11.6315C21.0113 11.0122 21.2556 10.7819 21.9122 10.7819H24.8164C26.6787 10.7819 27.7568 11.2153 27.7568 13.4297ZM24.8164 8.98952H21.5352C19.7819 8.98952 19 9.72694 19 11.3807V22.0022C19 22.641 19.2174 22.8461 19.8949 22.8461H20.1166C20.7939 22.8461 21.0113 22.641 21.0113 22.0022V17.8699H24.8164C28.1947 17.8699 29.7682 16.4589 29.7682 13.4297C29.7682 10.4003 28.1947 8.98952 24.8164 8.98952ZM66.5471 5.03432L65.0149 5.03382C64.8477 5.03365 64.7123 4.90593 64.7123 4.74826L64.7128 3.28523C64.713 3.12756 64.8486 3 65.0156 3L66.5478 3.0005C66.715 3.0005 66.8504 3.1284 66.8504 3.28589L66.8499 4.74893C66.8497 4.90659 66.7143 5.03432 66.5471 5.03432ZM69.5533 8.02941L67.2972 8.02858C67.0512 8.02858 66.8518 7.84032 66.852 7.60831L66.8527 5.45425C66.8529 5.22208 67.0525 5.03398 67.2985 5.03398L69.5544 5.03482C69.8006 5.03482 70 5.22308 70 5.45509L69.9991 7.60931C69.9991 7.84132 69.7995 8.02941 69.5533 8.02941ZM63.2122 12.0585C62.8808 12.0585 62.6124 11.8052 62.6126 11.4927L62.6135 8.99202H62.3924C61.0208 8.99202 60.5106 9.20556 60.5106 10.3839V13.1411C60.5105 13.147 60.5098 13.1528 60.5098 13.1586V13.763C60.5094 13.7839 60.508 13.8034 60.508 13.825V17.6776C60.508 18.1481 60.4119 18.5228 60.2135 18.8138C59.8395 19.3573 59.099 19.6043 57.9144 19.6058C56.7303 19.6043 55.99 19.3575 55.616 18.8145C55.4171 18.5233 55.3208 18.1484 55.3208 17.6776V13.825C55.3208 13.8034 55.3196 13.7839 55.3192 13.763V13.1586C55.3192 13.1528 55.3185 13.147 55.3183 13.1411V10.3839C55.3183 9.20556 54.8082 8.99202 53.4366 8.99202H53.0048C51.633 8.99202 51.123 9.20556 51.123 10.3839V17.6776C51.123 18.8509 51.4036 19.8443 51.9457 20.6451C52.9926 22.1968 55.0207 23.0232 57.9038 23.0232C57.9073 23.0232 57.9109 23.023 57.9144 23.023C57.9181 23.023 57.9215 23.0232 57.9252 23.0232C60.8083 23.0232 62.8364 22.1968 63.8833 20.6451C64.4254 19.8443 64.7059 18.8509 64.7059 17.6776V12.0588L63.2122 12.0585Z" fill="#A6C307"/>
</svg>
