<svg xmlns="http://www.w3.org/2000/svg" viewBox="0 0 512 512" class="icon mb-n1"><path d="M495 127h-76c-2.2 0-4-1.8-4-4V15c0-8.8-7.2-16-16-16H111c-8.8 0-16 7.2-16 16v108c0 2.2-1.8 4-4 4H15c-8.8 0-16 7.2-16 16v224c0 8.8 7.2 16 16 16h76c2.2 0 4 1.8 4 4l.4 108.6c0 8.8 7.2 15.9 16 15.9h288.1c8.8 0 16-7.2 16-16v-108c0-2.2 1.8-4 4-4l75.6-.4c8.8 0 15.9-7.2 15.9-16V143c0-8.8-7.2-16-16-16zM127 35c0-2.2 1.8-4 4-4h248c2.2 0 4 1.8 4 4v88c0 2.2-1.8 4-4 4H131c-2.2 0-4-1.8-4-4V35zm256.5 440.5c0 2.2-1.8 4-4 4h-248c-2.2 0-4-1.8-4-4v-152c0-2.2 1.8-4 4-4h248c2.2 0 4 1.8 4 4v152zm96-128.5c0 2.2-1.8 4-4 4H419c-2.2 0-4-1.8-4-4v-44c0-8.8-7.2-16-16-16H111c-8.8 0-16 7.2-16 16v44c0 2.2-1.8 4-4 4H35c-2.2 0-4-1.8-4-4V163c0-2.2 1.8-4 4-4l440.5.5c2.2 0 4 1.8 4 4V347z"></path><path d="M431.6 191.5h-32.3c-8.7 0-15.8 7.1-15.8 15.8v.3c0 8.7 7.1 15.8 15.8 15.8h32.3c8.7 0 15.8-7.1 15.8-15.8v-.3c0-8.7-7.1-15.8-15.8-15.8zm-128 160H175.3c-8.7 0-15.8 7.1-15.8 15.8v.3c0 8.7 7.1 15.8 15.8 15.8h128.3c8.7 0 15.8-7.1 15.8-15.8v-.3c0-8.7-7.1-15.8-15.8-15.8zm-64 64h-64.3c-8.7 0-15.8 7.1-15.8 15.8v.3c0 8.7 7.1 15.8 15.8 15.8h64.3c8.7 0 15.8-7.1 15.8-15.8v-.3c0-8.7-7.1-15.8-15.8-15.8z"></path></svg>