<svg width="91" height="30" viewBox="0 0 91 30" fill="none" xmlns="http://www.w3.org/2000/svg">
<path d="M10.6188 10.2098L10 12.5292L13.5418 10.1966L11.2254 18.998L13.578 19L17 6" fill="#3395FF"/>
<path d="M7.04711 15.7333L6 19.7375H11.1819L13.3023 11.5918L7.04711 15.7333ZM25.0473 12.208C24.9206 12.6907 24.6765 13.0453 24.3126 13.2718C23.9495 13.4978 23.4399 13.6112 22.782 13.6112H20.692L21.4259 10.8055H23.5159C24.1728 10.8055 24.6242 10.9181 24.8691 11.1476C25.114 11.3771 25.1731 11.7278 25.0473 12.2127M27.2111 12.1521C27.4771 11.1389 27.3674 10.3596 26.881 9.814C26.3954 9.27278 25.5434 9 24.3274 9H19.6631L16.8553 19.7423H19.1214L20.2529 15.4124H21.7392C22.0727 15.4124 22.3353 15.4687 22.527 15.577C22.7191 15.6896 22.8319 15.8844 22.8665 16.1658L23.271 19.7423H25.6987L25.3052 16.4083C25.225 15.6636 24.8927 15.2263 24.3088 15.0964C25.0532 14.8755 25.6768 14.5075 26.1792 13.9966C26.6782 13.4894 27.0346 12.8538 27.2111 12.1564M32.7194 15.8974C32.5294 16.6248 32.2381 17.1747 31.8442 17.56C31.4498 17.9454 30.9786 18.1359 30.4289 18.1359C29.869 18.1359 29.4895 17.9497 29.2889 17.573C29.0879 17.1963 29.0812 16.6508 29.2678 15.9364C29.4544 15.2219 29.7521 14.6634 30.1616 14.2607C30.5712 13.858 31.05 13.6567 31.5997 13.6567C32.1486 13.6567 32.5244 13.8515 32.7144 14.2382C32.9086 14.6266 32.9128 15.1821 32.7228 15.9052L32.7194 15.8974ZM33.7125 12.0958L33.4288 13.1826C33.3063 12.7929 33.0686 12.4812 32.7173 12.2474C32.3652 12.0179 31.9295 11.901 31.4097 11.901C30.7722 11.901 30.1599 12.0698 29.5731 12.4076C28.9862 12.7453 28.4711 13.2216 28.0319 13.8364C27.5928 14.4512 27.2719 15.1483 27.0651 15.932C26.8624 16.72 26.8202 17.4085 26.9426 18.006C27.0693 18.6078 27.3353 19.0668 27.7448 19.3872C28.1586 19.7119 28.6864 19.8721 29.3324 19.8721C29.8457 19.8748 30.3532 19.761 30.8186 19.5388C31.2787 19.3259 31.6879 19.0127 32.0177 18.6208L31.7222 19.7535H33.9135L35.9144 12.0997H33.7188L33.7125 12.0958ZM43.7888 12.0958H37.4162L36.9708 13.8018H40.6787L35.7768 18.1446L35.3579 19.7466H41.9361L42.3816 18.0406H38.4085L43.3856 13.6329M49.398 15.8844C49.2009 16.6378 48.9083 17.2041 48.5219 17.573C48.1356 17.9454 47.6678 18.1316 47.1185 18.1316C45.97 18.1316 45.5926 17.3825 45.9844 15.8844C46.1786 15.1397 46.4725 14.5798 46.8651 14.2027C47.2578 13.8243 47.7336 13.6355 48.2931 13.6355C48.842 13.6355 49.2127 13.823 49.4035 14.2005C49.5944 14.5772 49.5927 15.1388 49.398 15.8835M50.6807 12.3837C50.1762 12.0616 49.5323 11.9005 48.747 11.9005C47.9519 11.9005 47.216 12.0607 46.5388 12.3811C45.8643 12.6995 45.2716 13.1748 44.8076 13.7693C44.3305 14.3711 43.9873 15.0769 43.7766 15.8822C43.5697 16.6845 43.5444 17.389 43.7048 17.9921C43.8652 18.594 44.203 19.0573 44.7097 19.3777C45.2206 19.7007 45.8708 19.8613 46.6688 19.8613C47.4541 19.8613 48.1846 19.6994 48.8559 19.3772C49.5272 19.0534 50.1015 18.5936 50.5786 17.9874C51.0557 17.3838 51.3977 16.6798 51.6088 15.8744C51.8199 15.0691 51.8452 14.3659 51.6848 13.7615C51.5243 13.1596 51.1908 12.6964 50.6883 12.3738M58.5037 14.1403L59.0652 12.0577C58.8752 11.9581 58.6261 11.9062 58.3137 11.9062C57.8112 11.9062 57.3299 12.0335 56.8654 12.2915C56.466 12.5106 56.1266 12.8198 55.8394 13.2068L56.1308 12.0854L55.4945 12.088H53.9323L51.9183 19.7388H54.1404L55.1854 15.7393C55.3374 15.1579 55.611 14.7002 56.0058 14.3755C56.3985 14.0494 56.8883 13.8862 57.4794 13.8862C57.8425 13.8862 58.1802 13.9715 58.5011 14.1416M64.6867 15.9212C64.4967 16.6356 64.2096 17.1812 63.8169 17.5579C63.4242 17.9363 62.9514 18.1251 62.4025 18.1251C61.8536 18.1251 61.4778 17.9346 61.2794 17.5535C61.0767 17.1703 61.0725 16.6183 61.2625 15.8926C61.4525 15.1674 61.7438 14.611 62.1449 14.2256C62.546 13.8373 63.0189 13.6433 63.5678 13.6433C64.1082 13.6433 64.4713 13.8425 64.6656 14.2451C64.8598 14.6478 64.864 15.2063 64.6774 15.9208M66.2312 12.3963C65.8195 12.0586 65.2938 11.8897 64.6563 11.8897C64.0977 11.8897 63.5653 12.0196 63.0603 12.282C62.5557 12.5439 62.1462 12.9012 61.8316 13.3532L61.8392 13.3012L62.212 12.0846H60.0418L59.4887 14.2018L59.4718 14.2754L57.1918 22.9974H59.4169L60.5654 18.607C60.6794 18.9975 60.9116 19.3041 61.2663 19.5258C61.6209 19.7466 62.0588 19.8561 62.5794 19.8561C63.2254 19.8561 63.8418 19.6959 64.4266 19.3755C65.0135 19.0542 65.5201 18.5918 65.9508 17.9943C66.3815 17.3968 66.7011 16.704 66.905 15.9203C67.1119 15.1353 67.1541 14.4352 67.0359 13.8225C66.9156 13.209 66.6492 12.734 66.2379 12.398M73.612 15.89C73.422 16.6131 73.1307 17.1673 72.738 17.5483C72.3454 17.932 71.8725 18.1229 71.3236 18.1229C70.762 18.1229 70.382 17.9367 70.1836 17.56C69.9809 17.1833 69.9767 16.6378 70.1625 15.9234C70.3482 15.2089 70.6447 14.6504 71.0542 14.2477C71.4638 13.8451 71.943 13.6442 72.4927 13.6442C73.0416 13.6442 73.4132 13.839 73.6074 14.2243C73.8016 14.611 73.8029 15.1665 73.6137 15.8913L73.612 15.89ZM74.6042 12.0863L74.3201 13.1731C74.1976 12.7812 73.9612 12.4695 73.6108 12.2378C73.2561 12.0066 72.8212 11.8914 72.3019 11.8914C71.6643 11.8914 71.0487 12.0603 70.461 12.398C69.8741 12.7358 69.359 13.2094 68.9199 13.8225C68.4808 14.4356 68.1599 15.1345 67.953 15.9182C67.7482 16.7049 67.7081 17.3946 67.8305 17.9947C67.9543 18.5923 68.2207 19.0538 68.6328 19.376C69.044 19.6964 69.5743 19.8583 70.2203 19.8583C70.7397 19.8583 71.2358 19.7474 71.7065 19.5249C72.1656 19.3111 72.5737 18.9974 72.9027 18.6057L72.6071 19.7392H74.7985L76.7989 12.0885H74.6076L74.6042 12.0863ZM85.9987 12.0889L86 12.0867H84.6531C84.61 12.0867 84.572 12.0889 84.5328 12.0898H83.834L83.4751 12.6007L83.3865 12.7219L83.3484 12.7825L80.509 16.8387L79.9221 12.0889H77.5965L78.7745 19.3067L76.1736 23H78.4916L79.1207 22.0851C79.1385 22.0583 79.1545 22.0358 79.1756 22.0072L79.9103 20.9377L79.9314 20.9074L83.2218 16.123L85.9958 12.0962L86 12.0936H85.9987V12.0889Z" fill="#072654"/>
</svg>
