<svg xmlns="http://www.w3.org/2000/svg" version="1.1" id="Layer_1" x="0" y="0" viewBox="0 0 512 512" xml:space="preserve" class="icon icon-xxs align-middle" fill="#1a237e"><path d="M485.8 230.6L326.7 71.5c-6.9-6.9-16.1-10.7-25.8-10.7s-18.9 3.8-25.8 10.7c-6.9 6.9-10.7 16.1-10.7 25.8s3.8 18.9 10.7 25.8l96.8 96.8H46c-20.1 0-36.5 16.4-36.5 36.5s16.4 36.5 36.5 36.5h325.8L275 389.6c-6.9 6.9-10.7 16.1-10.7 25.8s3.8 18.9 10.7 25.8c6.9 6.9 16.1 10.7 25.8 10.7 9.8 0 19-3.8 25.8-10.7l159.1-159c6.9-6.9 10.7-16.1 10.7-25.8s-3.7-19-10.6-25.8z"></path></svg>