<svg xmlns="http://www.w3.org/2000/svg" viewBox="0 0 512 512" class="icon lpanel" fill="#000000"><path d="M354.5 493.3H158c-44.7 0-81-36.3-81-81V129.7c0-44.7 36.3-81 81-81h196.5c44.7 0 81 36.3 81 81v282.6c0 44.6-36.3 81-81 81zM158 90.7c-21.5 0-39 17.5-39 39v282.6c0 21.5 17.5 39 39 39h196.5c21.5 0 39-17.5 39-39V129.7c0-21.5-17.5-39-39-39H158z"></path><path d="M307.1 203.4H205.4c-11.6 0-21-9.4-21-21s9.4-21 21-21H307c11.6 0 21 9.4 21 21s-9.3 21-20.9 21zm-16.9 101.7h-67.8c-11.6 0-21-9.4-21-21s9.4-21 21-21h67.8c11.6 0 21 9.4 21 21s-9.4 21-21 21z"></path></svg>