<svg xmlns="http://www.w3.org/2000/svg" viewBox="0 0 436.82 346" class="icon icon-xxsm ham-arrow" fill="#000000"><path d="M415.82 42H21C9.4 42 0 32.6 0 21S9.4 0 21 0h394.82c11.6 0 21 9.4 21 21s-9.4 21-21 21zM0 173c0 .69.04 1.38.1 2.07.03.31.09.62.13.92.05.37.1.74.17 1.11.07.35.17.69.25 1.04.08.32.15.64.25.96.1.34.23.66.35.99.11.32.22.63.35.95.13.31.28.6.42.9.15.32.29.64.46.96.15.29.33.56.49.84.19.31.36.62.56.93.2.3.43.59.65.88.19.26.37.52.57.77.42.52.87 1.01 1.34 1.49.02.02.03.04.05.05l68.71 68.71c4.1 4.1 9.47 6.15 14.85 6.15 5.37 0 10.75-2.05 14.85-6.15 8.2-8.2 8.2-21.5 0-29.7l-32.86-32.86h344.13c11.6 0 21-9.4 21-21s-9.4-21-21-21H71.7l32.86-32.86c8.2-8.2 8.2-21.5 0-29.7s-21.5-8.2-29.7 0l-68.71 68.7c-.49.49-.96 1.01-1.4 1.54-.19.24-.36.49-.54.73-.23.31-.47.6-.68.92-.2.3-.37.6-.55.9-.17.29-.35.56-.51.86-.17.31-.31.63-.46.95-.14.3-.3.6-.43.92-.13.31-.23.62-.34.94-.12.33-.25.66-.35 1-.09.31-.16.63-.24.95-.09.35-.18.69-.26 1.04-.07.37-.12.74-.17 1.1-.04.31-.1.61-.13.93-.07.69-.1 1.38-.1 2.07H0zm0 152c0 11.6 9.4 21 21 21h394.82c11.6 0 21-9.4 21-21s-9.4-21-21-21H21c-11.6 0-21 9.4-21 21z"></path></svg>