<svg width="121" height="81" viewBox="0 0 121 81" fill="none" xmlns="http://www.w3.org/2000/svg">
<path fill-rule="evenodd" clip-rule="evenodd" d="M99 54L114 39.746L106.895 25L99 54Z" fill="#097939"/>
<path fill-rule="evenodd" clip-rule="evenodd" d="M93 54L109 39.746L101.421 25L93 54Z" fill="#ED752E"/>
<path fill-rule="evenodd" clip-rule="evenodd" d="M19.4401 25.2947L12.909 48.6361L36.095 48.7992L42.4636 25.2947H48.3416L40.7057 52.6197C40.4133 53.6631 39.2999 54.5109 38.22 54.5109H8.50075C6.69847 54.5109 5.63053 53.0979 6.11792 51.3588L13.4007 25.2947H19.4401ZM91.122 25.1317H97L88.8356 54.5109H82.7919L91.122 25.1317ZM48.9958 37.3725L78.3869 37.2094L80.3473 31.0064H50.4645L52.2603 25.2936L84.1035 25.0002C86.0856 24.9817 87.2662 26.5218 86.7441 28.4424L83.7439 39.4463C83.2208 41.3658 81.1878 42.9212 79.2057 42.9212H52.9145L49.8146 55H44.0958L48.9958 37.3725Z" fill="#747474"/>
</svg>
