<svg data-name="Layer 1" xmlns="http://www.w3.org/2000/svg" viewBox="0 0 500.93 447.08" class="icon icon-xsm warning mr-2" fill="#e9ae5b"><path d="M494.15 372.08L293.76 25c-19.24-33.34-67.35-33.34-86.6 0L6.77 372.08c-19.24 33.34 4.81 75 43.3 75h400.78c38.49 0 62.55-41.66 43.3-75zm-224.24 22.8a26.74 26.74 0 01-19.54 8 27.55 27.55 0 01-27.43-27.43 27.64 27.64 0 018.07-20.08 27.05 27.05 0 0138.9 0 27.64 27.64 0 018.07 20.08 26.3 26.3 0 01-8.07 19.43zm18.44-235.36q-.5 4.66-1.48 10L264.41 305.7a14 14 0 01-14.85 12 14 14 0 01-4.3-1 14.27 14.27 0 01-8.5-11l-22.22-135.21q-1.47-8.76-2-13.33a70 70 0 01-.49-7q0-14.66 10-22.75t28.27-8.09q18.25 0 28.39 8.37t10.12 23.62a79.58 79.58 0 01-.48 8.21z"></path><path d="M250.37 347.1a26.12 26.12 0 00-19.36 8.25 27.64 27.64 0 00-8.07 20.08 27.55 27.55 0 0027.43 27.43 26.74 26.74 0 0019.54-8 26.3 26.3 0 008.07-19.45 27.64 27.64 0 00-8.07-20.08 26.3 26.3 0 00-19.54-8.23zm28.36-219.48q-10.12-8.37-28.39-8.37t-28.24 8.09q-10 8.1-10 22.75a70 70 0 00.49 7q.5 4.58 2 13.33 11.12 67.6 22.22 135.21a14.27 14.27 0 008.5 11 14 14 0 004.3 1 14 14 0 0014.85-12l22.46-136.18q1-5.34 1.48-10a79.58 79.58 0 00.5-8.28q-.05-15.17-10.17-23.55z" fill="#fff"></path></svg>